<?xml version="1.0" encoding="UTF-8"?>
<svg id="Ebene_1" data-name="Ebene 1" xmlns="http://www.w3.org/2000/svg" viewBox="0 0 17 10">
  <defs>
    <style>
      .cls-1 {
        fill: #3c3c3b;
      }

      .cls-1, .cls-2, .cls-3 {
        stroke-width: 0px;
      }

      .cls-2 {
        fill: #706f6f;
      }

      .cls-3 {
        fill: #9d9d9c;
      }
    </style>
  </defs>
  <rect class="cls-1" x="9" y="9" width="1" height="1"/>
  <rect class="cls-1" x="8" y="9" width="1" height="1"/>
  <rect class="cls-1" x="7" y="9" width="1" height="1"/>
  <rect class="cls-1" x="10" y="8" width="1" height="1"/>
  <rect class="cls-3" x="9" y="8" width="1" height="1"/>
  <rect class="cls-3" x="8" y="8" width="1" height="1"/>
  <rect class="cls-3" x="7" y="8" width="1" height="1"/>
  <rect class="cls-1" x="6" y="8" width="1" height="1"/>
  <rect class="cls-1" x="11" y="7" width="1" height="1"/>
  <rect class="cls-3" x="10" y="7" width="1" height="1"/>
  <rect class="cls-2" x="9" y="7" width="1" height="1"/>
  <rect class="cls-2" x="8" y="7" width="1" height="1"/>
  <rect class="cls-2" x="7" y="7" width="1" height="1"/>
  <rect class="cls-3" x="6" y="7" width="1" height="1"/>
  <rect class="cls-1" x="5" y="7" width="1" height="1"/>
  <rect class="cls-1" x="12" y="6" width="1" height="1"/>
  <rect class="cls-3" x="11" y="6" width="1" height="1"/>
  <rect class="cls-2" x="10" y="6" width="1" height="1"/>
  <rect class="cls-2" x="9" y="6" width="1" height="1"/>
  <rect class="cls-2" x="8" y="6" width="1" height="1"/>
  <rect class="cls-2" x="7" y="6" width="1" height="1"/>
  <rect class="cls-2" x="6" y="6" width="1" height="1"/>
  <rect class="cls-3" x="5" y="6" width="1" height="1"/>
  <rect class="cls-1" x="4" y="6" width="1" height="1"/>
  <rect class="cls-1" x="13" y="5" width="1" height="1"/>
  <rect class="cls-3" x="12" y="5" width="1" height="1"/>
  <rect class="cls-2" x="11" y="5" width="1" height="1"/>
  <rect class="cls-2" x="10" y="5" width="1" height="1"/>
  <rect class="cls-2" x="9" y="5" width="1" height="1"/>
  <rect class="cls-2" x="8" y="5" width="1" height="1"/>
  <rect class="cls-2" x="7" y="5" width="1" height="1"/>
  <rect class="cls-2" x="6" y="5" width="1" height="1"/>
  <rect class="cls-2" x="5" y="5" width="1" height="1"/>
  <rect class="cls-3" x="4" y="5" width="1" height="1"/>
  <rect class="cls-1" x="3" y="5" width="1" height="1"/>
  <rect class="cls-1" x="14" y="4" width="1" height="1"/>
  <rect class="cls-3" x="13" y="4" width="1" height="1"/>
  <rect class="cls-2" x="12" y="4" width="1" height="1"/>
  <rect class="cls-2" x="11" y="4" width="1" height="1"/>
  <rect class="cls-2" x="10" y="4" width="1" height="1"/>
  <rect class="cls-2" x="9" y="4" width="1" height="1"/>
  <rect class="cls-2" x="8" y="4" width="1" height="1"/>
  <rect class="cls-2" x="7" y="4" width="1" height="1"/>
  <rect class="cls-2" x="6" y="4" width="1" height="1"/>
  <rect class="cls-2" x="5" y="4" width="1" height="1"/>
  <rect class="cls-2" x="4" y="4" width="1" height="1"/>
  <rect class="cls-3" x="3" y="4" width="1" height="1"/>
  <rect class="cls-1" x="2" y="4" width="1" height="1"/>
  <rect class="cls-1" x="15" y="3" width="1" height="1"/>
  <rect class="cls-3" x="14" y="3" width="1" height="1"/>
  <rect class="cls-2" x="13" y="3" width="1" height="1"/>
  <rect class="cls-2" x="12" y="3" width="1" height="1"/>
  <rect class="cls-2" x="11" y="3" width="1" height="1"/>
  <rect class="cls-2" x="10" y="3" width="1" height="1"/>
  <rect class="cls-2" x="9" y="3" width="1" height="1"/>
  <rect class="cls-2" x="8" y="3" width="1" height="1"/>
  <rect class="cls-2" x="7" y="3" width="1" height="1"/>
  <rect class="cls-2" x="6" y="3" width="1" height="1"/>
  <rect class="cls-2" x="5" y="3" width="1" height="1"/>
  <rect class="cls-2" x="4" y="3" width="1" height="1"/>
  <rect class="cls-2" x="3" y="3" width="1" height="1"/>
  <rect class="cls-3" x="2" y="3" width="1" height="1"/>
  <rect class="cls-1" x="1" y="3" width="1" height="1"/>
  <rect class="cls-1" x="16" y="2" width="1" height="1"/>
  <rect class="cls-3" x="15" y="2" width="1" height="1"/>
  <rect class="cls-2" x="14" y="2" width="1" height="1"/>
  <rect class="cls-2" x="13" y="2" width="1" height="1"/>
  <rect class="cls-2" x="12" y="2" width="1" height="1"/>
  <rect class="cls-2" x="11" y="2" width="1" height="1"/>
  <rect class="cls-2" x="10" y="2" width="1" height="1"/>
  <rect class="cls-2" x="9" y="2" width="1" height="1"/>
  <rect class="cls-2" x="8" y="2" width="1" height="1"/>
  <rect class="cls-2" x="7" y="2" width="1" height="1"/>
  <rect class="cls-2" x="6" y="2" width="1" height="1"/>
  <rect class="cls-2" x="5" y="2" width="1" height="1"/>
  <rect class="cls-2" x="4" y="2" width="1" height="1"/>
  <rect class="cls-2" x="3" y="2" width="1" height="1"/>
  <rect class="cls-2" x="2" y="2" width="1" height="1"/>
  <rect class="cls-3" x="1" y="2" width="1" height="1"/>
  <rect class="cls-1" y="2" width="1" height="1"/>
  <rect class="cls-1" x="16" y="1" width="1" height="1"/>
  <rect class="cls-3" x="15" y="1" width="1" height="1"/>
  <rect class="cls-2" x="14" y="1" width="1" height="1"/>
  <rect class="cls-2" x="13" y="1" width="1" height="1"/>
  <rect class="cls-2" x="12" y="1" width="1" height="1"/>
  <rect class="cls-2" x="11" y="1" width="1" height="1"/>
  <rect class="cls-2" x="10" y="1" width="1" height="1"/>
  <rect class="cls-2" x="9" y="1" width="1" height="1"/>
  <rect class="cls-2" x="8" y="1" width="1" height="1"/>
  <rect class="cls-2" x="7" y="1" width="1" height="1"/>
  <rect class="cls-2" x="6" y="1" width="1" height="1"/>
  <rect class="cls-2" x="5" y="1" width="1" height="1"/>
  <rect class="cls-2" x="4" y="1" width="1" height="1"/>
  <rect class="cls-2" x="3" y="1" width="1" height="1"/>
  <rect class="cls-2" x="2" y="1" width="1" height="1"/>
  <rect class="cls-3" x="1" y="1" width="1" height="1"/>
  <rect class="cls-1" y="1" width="1" height="1"/>
  <rect class="cls-1" x="15" width="1" height="1"/>
  <rect class="cls-1" x="14" width="1" height="1"/>
  <rect class="cls-1" x="13" width="1" height="1"/>
  <rect class="cls-1" x="12" width="1" height="1"/>
  <rect class="cls-1" x="11" width="1" height="1"/>
  <rect class="cls-1" x="10" width="1" height="1"/>
  <rect class="cls-1" x="9" width="1" height="1"/>
  <rect class="cls-1" x="8" width="1" height="1"/>
  <rect class="cls-1" x="7" width="1" height="1"/>
  <rect class="cls-1" x="6" width="1" height="1"/>
  <rect class="cls-1" x="5" width="1" height="1"/>
  <rect class="cls-1" x="4" width="1" height="1"/>
  <rect class="cls-1" x="3" width="1" height="1"/>
  <rect class="cls-1" x="2" width="1" height="1"/>
  <rect class="cls-1" x="1" width="1" height="1"/>
</svg>