<?xml version="1.0" encoding="UTF-8"?>
<svg id="Ebene_1" data-name="Ebene 1" xmlns="http://www.w3.org/2000/svg" viewBox="0 0 95.58 95.58">
  <defs>
    <style>
      .cls-1 {
        fill: #e7f3f7;
      }

      .cls-1, .cls-2, .cls-3, .cls-4 {
        stroke-width: 0px;
      }

      .cls-2 {
        fill: #6b7076;
      }

      .cls-3 {
        fill: #ca9ac6;
      }

      .cls-4 {
        fill: #5dc0c9;
      }
    </style>
  </defs>
  <rect class="cls-2" x="89.2" y="57.35" width="6.37" height="6.37"/>
  <rect class="cls-1" x="89.2" y="50.98" width="6.37" height="6.37"/>
  <rect class="cls-1" x="89.2" y="44.61" width="6.37" height="6.37"/>
  <rect class="cls-2" x="89.2" y="38.23" width="6.37" height="6.37"/>
  <rect class="cls-2" x="89.2" y="31.86" width="6.37" height="6.37"/>
  <rect class="cls-2" x="82.83" y="70.09" width="6.37" height="6.38"/>
  <rect class="cls-2" x="82.83" y="63.72" width="6.37" height="6.37"/>
  <rect class="cls-2" x="82.83" y="25.49" width="6.37" height="6.37"/>
  <rect class="cls-1" x="82.83" y="19.12" width="6.37" height="6.37"/>
  <rect class="cls-1" x="76.46" y="76.47" width="6.37" height="6.37"/>
  <rect class="cls-3" x="76.46" y="57.35" width="6.37" height="6.37"/>
  <rect class="cls-1" x="76.46" y="12.75" width="6.37" height="6.37"/>
  <rect class="cls-1" x="70.09" y="82.84" width="6.37" height="6.37"/>
  <rect class="cls-4" x="70.09" y="63.72" width="6.37" height="6.37"/>
  <rect class="cls-2" x="70.09" y="6.37" width="6.37" height="6.38"/>
  <rect class="cls-2" x="63.72" y="82.84" width="6.37" height="6.37"/>
  <rect class="cls-4" x="63.72" y="70.09" width="6.37" height="6.38"/>
  <rect class="cls-3" x="63.72" y="63.72" width="6.37" height="6.37"/>
  <rect class="cls-1" x="63.72" y="6.37" width="6.37" height="6.38"/>
  <rect class="cls-2" x="57.35" y="89.21" width="6.37" height="6.37"/>
  <rect class="cls-1" x="57.35" y="70.09" width="6.37" height="6.38"/>
  <rect class="cls-3" x="57.35" y="19.12" width="6.37" height="6.37"/>
  <rect class="cls-1" x="57.35" width="6.37" height="6.37"/>
  <rect class="cls-2" x="50.97" y="89.21" width="6.38" height="6.37"/>
  <rect class="cls-3" x="50.97" y="19.12" width="6.38" height="6.37"/>
  <rect class="cls-4" x="50.97" y="12.75" width="6.38" height="6.37"/>
  <rect class="cls-1" x="50.97" width="6.38" height="6.37"/>
  <rect class="cls-2" x="44.6" y="89.21" width="6.37" height="6.37"/>
  <rect class="cls-3" x="44.6" y="25.49" width="6.37" height="6.37"/>
  <rect class="cls-4" x="44.6" y="19.12" width="6.37" height="6.37"/>
  <rect class="cls-1" x="44.6" y="12.75" width="6.37" height="6.37"/>
  <rect class="cls-1" x="44.6" width="6.37" height="6.37"/>
  <rect class="cls-2" x="38.23" y="89.21" width="6.37" height="6.37"/>
  <rect class="cls-4" x="38.23" y="25.49" width="6.37" height="6.37"/>
  <rect class="cls-1" x="38.23" y="19.12" width="6.37" height="6.37"/>
  <rect class="cls-1" x="38.23" y="12.75" width="6.37" height="6.37"/>
  <rect class="cls-2" x="38.23" width="6.37" height="6.37"/>
  <rect class="cls-1" x="31.86" y="89.21" width="6.37" height="6.37"/>
  <rect class="cls-3" x="31.86" y="70.09" width="6.37" height="6.38"/>
  <rect class="cls-3" x="31.86" y="31.86" width="6.37" height="6.37"/>
  <rect class="cls-1" x="31.86" y="25.49" width="6.37" height="6.37"/>
  <rect class="cls-1" x="31.86" y="19.12" width="6.37" height="6.37"/>
  <rect class="cls-2" x="31.86" width="6.37" height="6.37"/>
  <rect class="cls-1" x="25.49" y="82.84" width="6.37" height="6.37"/>
  <rect class="cls-4" x="25.49" y="70.09" width="6.37" height="6.38"/>
  <rect class="cls-3" x="25.49" y="63.72" width="6.37" height="6.37"/>
  <rect class="cls-3" x="25.49" y="38.23" width="6.37" height="6.37"/>
  <rect class="cls-4" x="25.49" y="31.86" width="6.37" height="6.37"/>
  <rect class="cls-1" x="25.49" y="25.49" width="6.37" height="6.37"/>
  <rect class="cls-2" x="25.49" y="6.37" width="6.37" height="6.38"/>
  <rect class="cls-1" x="19.11" y="82.84" width="6.37" height="6.37"/>
  <rect class="cls-1" x="19.11" y="63.72" width="6.37" height="6.37"/>
  <rect class="cls-4" x="19.11" y="44.61" width="6.37" height="6.37"/>
  <rect class="cls-4" x="19.11" y="38.23" width="6.37" height="6.37"/>
  <rect class="cls-1" x="19.11" y="31.86" width="6.37" height="6.37"/>
  <rect class="cls-1" x="19.11" y="25.49" width="6.37" height="6.37"/>
  <rect class="cls-2" x="19.11" y="6.37" width="6.37" height="6.38"/>
  <rect class="cls-2" x="12.74" y="76.47" width="6.37" height="6.37"/>
  <rect class="cls-1" x="12.74" y="44.61" width="6.37" height="6.37"/>
  <rect class="cls-1" x="12.74" y="38.23" width="6.37" height="6.37"/>
  <rect class="cls-1" x="12.74" y="12.75" width="6.37" height="6.37"/>
  <rect class="cls-2" x="6.37" y="70.09" width="6.37" height="6.38"/>
  <rect class="cls-2" x="6.37" y="63.72" width="6.37" height="6.37"/>
  <rect class="cls-1" x="6.37" y="25.49" width="6.37" height="6.37"/>
  <rect class="cls-1" x="6.37" y="19.12" width="6.37" height="6.37"/>
  <rect class="cls-2" y="57.35" width="6.37" height="6.37"/>
  <rect class="cls-2" y="50.98" width="6.37" height="6.37"/>
  <rect class="cls-2" y="44.61" width="6.37" height="6.37"/>
  <rect class="cls-1" y="38.23" width="6.37" height="6.37"/>
  <rect class="cls-1" y="31.86" width="6.37" height="6.37"/>
</svg>